# Blender v2.78 (sub 0) OBJ File: 'PixelChest.blend'
# www.blender.org
mtllib PixelChest_Chest.mtl
o Chest
v -0.649596 0.486977 0.330342
v -0.649596 0.672987 0.330342
v -0.648988 0.486977 0.270345
v -0.648988 0.672987 0.270345
v 0.648988 0.486977 0.343504
v 0.648988 0.672987 0.343504
v 0.649596 0.486977 0.283507
v 0.649596 0.672987 0.283507
v -0.621620 0.313607 0.318462
v -0.618767 0.500330 0.318462
v -0.621620 0.313607 0.258462
v -0.618767 0.500330 0.258462
v 0.618767 0.294660 0.318462
v 0.621620 0.481383 0.318462
v 0.618767 0.294660 0.258462
v 0.621620 0.481383 0.258462
v -0.598842 0.121363 0.317830
v -0.598842 0.307017 0.317830
v -0.600627 0.121363 0.257857
v -0.600627 0.307017 0.257857
v 0.600627 0.121363 0.282143
v 0.600627 0.307017 0.282143
v 0.598842 0.121363 0.222170
v 0.598842 0.307017 0.222170
v 0.650942 0.495385 -0.347064
v 0.648536 0.681379 -0.347112
v 0.649749 0.495385 -0.287076
v 0.647343 0.681379 -0.287124
v -0.647343 0.478585 -0.372876
v -0.649749 0.664579 -0.372924
v -0.648536 0.478585 -0.312888
v -0.650942 0.664579 -0.312936
v 0.620266 0.304122 -0.341538
v 0.620266 0.490868 -0.341538
v 0.620266 0.304122 -0.281538
v 0.620266 0.490868 -0.281538
v -0.620266 0.304122 -0.341537
v -0.620266 0.490868 -0.341537
v -0.620266 0.304122 -0.281538
v -0.620266 0.490868 -0.281538
v 0.598102 0.113457 -0.333617
v 0.600553 0.299095 -0.333617
v 0.599157 0.113443 -0.273626
v 0.601608 0.299081 -0.273626
v -0.601608 0.129299 -0.312524
v -0.599157 0.314937 -0.312524
v -0.600553 0.129285 -0.252533
v -0.598102 0.314923 -0.252533
v 0.620181 0.488107 0.313125
v 0.620181 0.668398 0.313125
v 0.562798 0.488107 0.313125
v 0.562798 0.668398 0.313125
v 0.620181 0.488107 -0.336200
v 0.620181 0.668398 -0.336200
v 0.562798 0.488107 -0.336200
v 0.562798 0.668398 -0.336200
v 0.584686 0.315768 0.302754
v 0.584891 0.504135 0.295295
v 0.527325 0.315768 0.301175
v 0.527530 0.504135 0.293716
v 0.601741 0.291216 -0.316791
v 0.601946 0.479583 -0.324250
v 0.544380 0.291216 -0.318370
v 0.544585 0.479583 -0.325829
v 0.573831 0.125955 0.288463
v 0.573831 0.306265 0.288463
v 0.516447 0.125955 0.288463
v 0.516447 0.306265 0.288463
v 0.573830 0.125955 -0.311538
v 0.573830 0.306265 -0.311538
v 0.516447 0.125955 -0.311538
v 0.516447 0.306265 -0.311538
v -0.642537 0.503816 -0.330728
v -0.641945 0.683899 -0.322082
v -0.585287 0.503816 -0.334643
v -0.584696 0.683899 -0.325998
v -0.598283 0.472607 0.316336
v -0.597691 0.652689 0.324981
v -0.541033 0.472607 0.312420
v -0.540442 0.652689 0.321066
v -0.593327 0.303418 -0.314964
v -0.593327 0.491933 -0.314964
v -0.535944 0.303418 -0.314964
v -0.535944 0.491933 -0.314964
v -0.593327 0.303418 0.305302
v -0.593327 0.491933 0.305302
v -0.535944 0.303418 0.305302
v -0.535944 0.491933 0.305302
v -0.576695 0.125955 -0.304543
v -0.576695 0.306265 -0.304543
v -0.519314 0.125955 -0.305091
v -0.519314 0.306265 -0.305091
v -0.570964 0.125955 0.295429
v -0.570964 0.306265 0.295429
v -0.513583 0.125955 0.294881
v -0.513583 0.306265 0.294881
vn -0.9999 0.0000 -0.0101
vn 0.0101 0.0000 -0.9999
vn 0.9999 0.0000 0.0101
vn -0.0101 0.0000 0.9999
vn 0.0000 -1.0000 0.0000
vn 0.0000 1.0000 0.0000
vn -0.9999 0.0153 0.0000
vn 0.0000 0.0000 -1.0000
vn 0.9999 -0.0153 0.0000
vn 0.0000 0.0000 1.0000
vn -0.0153 -0.9999 0.0000
vn 0.0153 0.9999 0.0000
vn -0.9996 0.0000 0.0297
vn -0.0297 0.0000 -0.9996
vn 0.9996 0.0000 -0.0297
vn 0.0297 0.0000 0.9996
vn 0.9997 0.0129 0.0199
vn -0.0199 -0.0000 0.9998
vn -0.9997 -0.0129 -0.0199
vn 0.0199 0.0000 -0.9998
vn 0.0129 -0.9999 0.0003
vn -0.0129 0.9999 -0.0003
vn 1.0000 0.0000 0.0000
vn -1.0000 0.0000 0.0000
vn 0.9998 -0.0132 -0.0176
vn 0.0176 -0.0002 0.9998
vn -0.9998 0.0132 0.0176
vn -0.0176 0.0002 -0.9998
vn -0.0132 -0.9999 0.0000
vn 0.0132 0.9999 0.0000
vn -0.0275 0.0396 0.9988
vn -0.9996 -0.0000 -0.0275
vn 0.0275 -0.0396 -0.9988
vn 0.9996 0.0000 0.0275
vn -0.0011 -0.9992 0.0396
vn 0.0011 0.9992 -0.0396
vn -0.0682 0.0481 -0.9965
vn 0.9977 -0.0000 -0.0682
vn 0.0682 -0.0481 0.9965
vn -0.9977 -0.0000 0.0682
vn -0.0033 -0.9988 -0.0480
vn 0.0033 0.9988 0.0480
vn -0.0096 0.0000 -1.0000
vn 1.0000 0.0000 -0.0096
vn 0.0096 0.0000 1.0000
vn -1.0000 0.0000 0.0096
usemtl Chest_Wood
s off
f 1//1 2//1 4//1 3//1
f 3//2 4//2 8//2 7//2
f 7//3 8//3 6//3 5//3
f 5//4 6//4 2//4 1//4
f 3//5 7//5 5//5 1//5
f 8//6 4//6 2//6 6//6
f 9//7 10//7 12//7 11//7
f 11//8 12//8 16//8 15//8
f 15//9 16//9 14//9 13//9
f 13//10 14//10 10//10 9//10
f 11//11 15//11 13//11 9//11
f 16//12 12//12 10//12 14//12
f 17//13 18//13 20//13 19//13
f 19//14 20//14 24//14 23//14
f 23//15 24//15 22//15 21//15
f 21//16 22//16 18//16 17//16
f 19//5 23//5 21//5 17//5
f 24//6 20//6 18//6 22//6
f 25//17 26//17 28//17 27//17
f 27//18 28//18 32//18 31//18
f 31//19 32//19 30//19 29//19
f 29//20 30//20 26//20 25//20
f 27//21 31//21 29//21 25//21
f 32//22 28//22 26//22 30//22
f 33//23 34//23 36//23 35//23
f 35//10 36//10 40//10 39//10
f 39//24 40//24 38//24 37//24
f 37//8 38//8 34//8 33//8
f 35//5 39//5 37//5 33//5
f 40//6 36//6 34//6 38//6
f 41//25 42//25 44//25 43//25
f 43//26 44//26 48//26 47//26
f 47//27 48//27 46//27 45//27
f 45//28 46//28 42//28 41//28
f 43//29 47//29 45//29 41//29
f 48//30 44//30 42//30 46//30
f 49//10 50//10 52//10 51//10
f 51//24 52//24 56//24 55//24
f 55//8 56//8 54//8 53//8
f 53//23 54//23 50//23 49//23
f 51//5 55//5 53//5 49//5
f 56//6 52//6 50//6 54//6
f 57//31 58//31 60//31 59//31
f 59//32 60//32 64//32 63//32
f 63//33 64//33 62//33 61//33
f 61//34 62//34 58//34 57//34
f 59//35 63//35 61//35 57//35
f 64//36 60//36 58//36 62//36
f 65//10 66//10 68//10 67//10
f 67//24 68//24 72//24 71//24
f 71//8 72//8 70//8 69//8
f 69//23 70//23 66//23 65//23
f 67//5 71//5 69//5 65//5
f 72//6 68//6 66//6 70//6
f 73//37 74//37 76//37 75//37
f 75//38 76//38 80//38 79//38
f 79//39 80//39 78//39 77//39
f 77//40 78//40 74//40 73//40
f 75//41 79//41 77//41 73//41
f 80//42 76//42 74//42 78//42
f 81//8 82//8 84//8 83//8
f 83//23 84//23 88//23 87//23
f 87//10 88//10 86//10 85//10
f 85//24 86//24 82//24 81//24
f 83//5 87//5 85//5 81//5
f 88//6 84//6 82//6 86//6
f 89//43 90//43 92//43 91//43
f 91//44 92//44 96//44 95//44
f 95//45 96//45 94//45 93//45
f 93//46 94//46 90//46 89//46
f 91//5 95//5 93//5 89//5
f 96//6 92//6 90//6 94//6
